# xmcd CD database file
#
# Track frame offsets:
#	150
#	18633
#	47361
#	61467
#
# Disc length: 1262 seconds
#
# Revision: 0
# Processed by: cddbd v1.5PL3 Copyright (c) Steve Scherf et al.
# Submitted via: CDex 1.50
#
DISCID=2c04ec04
DTITLE=Gutbucket - Dry Humping the American Dream
DYEAR=2003
DGENRE=Jazz
TTITLE0=Snarling Wrath of Angry Gods
TTITLE1=Dry Humping the American Dream
TTITLE2=O.J. Bin Laden
TTITLE3=Dnace of the Demented Pigeon
EXTD=YEAR: 2003
EXTT0=
EXTT1=
EXTT2=
EXTT3=
PLAYORDER=
